<mxfile modified="2023-08-02T03:42:10.846Z" host="app.diagrams.net" agent="5.0 (Macintosh; Intel Mac OS X 10_15_7) AppleWebKit/537.36 (KHTML, like Gecko) Chrome/114.0.0.0 Safari/537.36" etag="9eb7RUU1lB7maWobuWmx" version="20.6.2" type="github">
  <diagram id="f106602c-feb2-e66a-4537-3a34d633f6aa" name="Page-1">
    <mxGraphModel dx="1240" dy="697" grid="1" gridSize="10" guides="1" tooltips="1" connect="1" arrows="1" fold="1" page="1" pageScale="1" pageWidth="1169" pageHeight="827" background="none" math="0" shadow="0">
      <root>
        <mxCell id="0" />
        <mxCell id="1" parent="0" />
        <mxCell id="14" value="&lt;b&gt;云媒资&lt;/b&gt;" style="fillColor=#F6F6F6;strokeColor=none;shadow=0;gradientColor=none;fontSize=14;align=left;spacing=10;fontColor=#717171;9E9E9E;verticalAlign=top;spacingTop=-4;fontStyle=0;spacingLeft=40;html=1;container=0;" parent="1" vertex="1">
          <mxGeometry x="520" y="90" width="421" height="330" as="geometry" />
        </mxCell>
        <mxCell id="2" value="云媒资" style="fillColor=#4DA1F5;strokeColor=none;shadow=1;gradientColor=none;fontSize=14;align=left;spacingLeft=50;fontColor=#ffffff;html=1;" parent="1" vertex="1">
          <mxGeometry x="169" y="40" width="801" height="40" as="geometry" />
        </mxCell>
        <mxCell id="EmaKph8l3iPdzom6f2Yf-546" style="edgeStyle=orthogonalEdgeStyle;shape=connector;rounded=0;orthogonalLoop=1;jettySize=auto;html=1;exitX=1;exitY=0.5;exitDx=0;exitDy=0;entryX=0;entryY=0.5;entryDx=0;entryDy=0;dashed=0;labelBackgroundColor=none;strokeColor=#4284F3;strokeWidth=2;fontFamily=Helvetica;fontSize=10;fontColor=#999999;startArrow=none;startFill=0;endArrow=blockThin;endFill=1;startSize=4;endSize=4;" edge="1" parent="1" source="EmaKph8l3iPdzom6f2Yf-520" target="14">
          <mxGeometry relative="1" as="geometry" />
        </mxCell>
        <mxCell id="EmaKph8l3iPdzom6f2Yf-520" value="" style="strokeColor=#dddddd;shadow=1;strokeWidth=1;rounded=1;absoluteArcSize=1;arcSize=2;" vertex="1" parent="1">
          <mxGeometry x="310" y="225" width="150" height="60" as="geometry" />
        </mxCell>
        <mxCell id="EmaKph8l3iPdzom6f2Yf-521" value="&lt;font color=&quot;#000000&quot;&gt;统一存储&lt;/font&gt;&lt;br&gt;支持s3/NFS等&lt;br&gt;各种存储方式" style="editableCssRules=.*;html=1;fontColor=#999999;shape=image;verticalLabelPosition=middle;labelBackgroundColor=#ffffff;verticalAlign=middle;labelPosition=right;align=left;spacingLeft=20;part=1;points=[];imageAspect=0;image=data:image/svg+xml,PHN2ZyB4bWxucz0iaHR0cDovL3d3dy53My5vcmcvMjAwMC9zdmciIHhtbG5zOnY9Imh0dHBzOi8vdmVjdGEuaW8vbmFubyIgd2lkdGg9IjIwIiBoZWlnaHQ9IjE2IiB2aWV3Qm94PSIwIDAgMjAgMTYiPiYjeGE7CTxzdHlsZSB0eXBlPSJ0ZXh0L2NzcyI+JiN4YTsJLnN0MHtmaWxsOiM0Mjg1ZjQ7fSYjeGE7CS5zdDF7ZmlsbDojNjY5ZGY2O30mI3hhOwkuc3Qye2ZpbGw6I2FlY2JmYTt9JiN4YTsJLnN0M3tmaWxsOiNmZmY7fSYjeGE7CTwvc3R5bGU+JiN4YTsJPHBhdGggY2xhc3M9InN0MiIgZD0iTTAgMGgyMHY3SDB6Ii8+JiN4YTsJPHBhdGggY2xhc3M9InN0MSIgZD0iTTE4IDBoMnY3aC0yeiIvPiYjeGE7CTxwYXRoIGNsYXNzPSJzdDAiIGQ9Ik0xOCA3bDItN2gtMnoiLz4mI3hhOwk8cGF0aCBjbGFzcz0ic3QxIiBkPSJNMCAwaDJ2N0gweiIvPiYjeGE7CTxnIGNsYXNzPSJzdDMiPiYjeGE7CQk8cGF0aCBkPSJNNCAzaDZ2MUg0eiIvPiYjeGE7CQk8cmVjdCB4PSIxMyIgeT0iMiIgd2lkdGg9IjMiIGhlaWdodD0iMyIgcng9IjEuNSIvPiYjeGE7CTwvZz4mI3hhOwk8cGF0aCBjbGFzcz0ic3QyIiBkPSJNMCA5aDIwdjdIMHoiLz4mI3hhOwk8cGF0aCBjbGFzcz0ic3QxIiBkPSJNMTggOWgydjdoLTJ6Ii8+JiN4YTsJPHBhdGggY2xhc3M9InN0MCIgZD0iTTE4IDE2bDItN2gtMnoiLz4mI3hhOwk8cGF0aCBjbGFzcz0ic3QxIiBkPSJNMCA5aDJ2N0gweiIvPiYjeGE7CTxnIGNsYXNzPSJzdDMiPiYjeGE7CQk8cGF0aCBkPSJNNCAxMmg2djFINHoiLz4mI3hhOwkJPHJlY3QgeD0iMTMiIHk9IjExIiB3aWR0aD0iMyIgaGVpZ2h0PSIzIiByeD0iMS41Ii8+JiN4YTsJPC9nPiYjeGE7PC9zdmc+;" vertex="1" parent="EmaKph8l3iPdzom6f2Yf-520">
          <mxGeometry width="30" height="24" relative="1" as="geometry">
            <mxPoint x="15" y="18" as="offset" />
          </mxGeometry>
        </mxCell>
        <mxCell id="EmaKph8l3iPdzom6f2Yf-528" style="edgeStyle=orthogonalEdgeStyle;shape=connector;rounded=0;orthogonalLoop=1;jettySize=auto;html=1;entryX=0;entryY=0.5;entryDx=0;entryDy=0;dashed=0;labelBackgroundColor=none;strokeColor=#4284F3;strokeWidth=2;fontFamily=Helvetica;fontSize=10;fontColor=#999999;startArrow=none;startFill=0;endArrow=blockThin;endFill=1;startSize=4;endSize=4;" edge="1" parent="1" source="EmaKph8l3iPdzom6f2Yf-526" target="EmaKph8l3iPdzom6f2Yf-520">
          <mxGeometry relative="1" as="geometry" />
        </mxCell>
        <mxCell id="EmaKph8l3iPdzom6f2Yf-547" value="视频&lt;br&gt;音频&lt;br&gt;图片" style="edgeLabel;html=1;align=center;verticalAlign=middle;resizable=0;points=[];fontSize=10;fontFamily=Helvetica;fontColor=#999999;" vertex="1" connectable="0" parent="EmaKph8l3iPdzom6f2Yf-528">
          <mxGeometry x="-0.1026" y="4" relative="1" as="geometry">
            <mxPoint as="offset" />
          </mxGeometry>
        </mxCell>
        <mxCell id="EmaKph8l3iPdzom6f2Yf-526" value="云录制&lt;br&gt;手动上传&lt;br&gt;历史媒资" style="sketch=0;html=1;verticalAlign=top;labelPosition=center;verticalLabelPosition=bottom;align=center;spacingTop=2;fontSize=11;fontStyle=1;fontColor=#999999;shape=image;aspect=fixed;imageAspect=0;image=data:image/svg+xml,PHN2ZyB4bWxucz0iaHR0cDovL3d3dy53My5vcmcvMjAwMC9zdmciIGlkPSJzdmczNjAwOCIgdmVyc2lvbj0iMS4xIiB2aWV3Qm94PSIwIDAgMTIxLjI1MDg4IDEwMC4wNjkyMyIgaGVpZ2h0PSIxMDAuMDY5MjNtbSIgd2lkdGg9IjEyMS4yNTA4OG1tIj4mI3hhOyAgJiN4YTsgIDxkZWZzIGlkPSJkZWZzMzYwMDUiLz4mI3hhOyAgPGcgdHJhbnNmb3JtPSJ0cmFuc2xhdGUoLTQ2LjIyMTU4LC05OC4zMzc4OCkiIGlkPSJsYXllcjEiPiYjeGE7ICAgIDxwYXRoIGQ9Im0gNzkuNjMyOTE4LDE0Ni45MDY4OSA2Ljc2MTM0NSw2LjY3NDAxIC0xNC4xNjk0MiwxNC4yODQ0IGggNDcuMDI4OTA3IHYgOS41MDAyIEggNzIuMjI0ODQzIGwgMTQuMjA4NjkyLDE0LjMzNjU5IC02LjczMDMzOSw2LjcwNTAyIC0yNS41NjYzOTQsLTI1LjY2NDA3IHogbSA2Mi4zNDM0MzIsLTIzLjcxOTU4IC02Ljc2MTM1LDYuNjc0MDEgMTQuMTY5NDIsMTQuMjg0NCBoIC00Ny4wMjg5MSB2IDkuNTAwMTkgaCA0Ny4wMjg5MSBsIC0xNC4yMDg2OSwxNC4zMzY2IDYuNzMwMzMsNi43MDUwMiAyNS41NjY0LC0yNS42NjQwNyB6IiBzdHlsZT0iY29sb3I6IzAwMDAwMDtvcGFjaXR5OjE7ZmlsbDojNDI4NWY0O2ZpbGwtb3BhY2l0eToxO3N0cm9rZS13aWR0aDoxOy1pbmtzY2FwZS1zdHJva2U6bm9uZSIgaWQ9InBhdGgzNjE0Mi02Ii8+JiN4YTsgICAgPHBhdGggaWQ9InBhdGgzNjE0NiIgZD0ibSAxMDUuMzM1OTQsOTguMzM3ODkxIGMgLTExLjEyNjE1NywtMC4wMDg1IC0xOS43MDYxNTEsNC45OTk5MjkgLTI1LjQ3ODUxOCwxMS4xNTQyOTkgLTQuODYwMjQ5LDUuMTgxODkgLTcuODUwMDUzLDExLjAzNjc3IC05LjY2MDE1NiwxNS45OTIxOSAtNy45MTYyNCwxLjUyOTA1IC0xNC45NzI2NTksNS44MzI0NCAtMTkuMDk5NjEsMTIuMTAxNTYgbCAtMC4wODIwMywwLjEyNSAtMC4wNzQyMiwwLjEyODkgYyAtMy44NTQxNTcsNi43NDA3NCAtNS4wNjQ5NTksMTIuNDUwODYgLTQuNjM4NjcyLDE3LjI5MTAyIDAuMjM0MDk5LDIuNjU4MDIgMC44OTI4Nyw0Ljk0NSAxLjYyNTExOCw2Ljk0OTk5IGwgNy45ODk2ODcsLTYuNjU1NTggYyAtMC4wNjcxMiwtMC4zNzM1IC0wLjExODQ2OCwtMC43NDg2NSAtMC4xNTE5MTQsLTEuMTI4NCAtMC4yNDI0LC0yLjc1MjI5IDAuMjUzNjU4LC02LjExNTY3IDMuMzMwMDc4LC0xMS41NTY2NCAyLjgwMDQzMiwtNC4xODk2NSA4Ljg1Mjc1NiwtNy44NjkzMyAxNS4xMDM1MTYsLTguNDIxODcgbCAzLjIwODk4NCwtMC4yODMyIDAuOTIzODI4LC0zLjA4NTk0IGMgMS4yNTQ5ODEsLTQuMTkwMDIgNC4wNDA3NTksLTEwLjI1NDYyIDguNDUzMTI1LC0xNC45NTg5OSA0LjQxMjM2NiwtNC43MDQzNiAxMC4xNzYxMywtOC4xNTg3NSAxOC41NTA3ODQsLTguMTUyMzQgeiIgc3R5bGU9ImNvbG9yOiMwMDAwMDA7b3BhY2l0eToxO2ZpbGw6I2FlY2JmYTtmaWxsLW9wYWNpdHk6MTstaW5rc2NhcGUtc3Ryb2tlOm5vbmUiLz4mI3hhOyAgICA8cGF0aCBpZD0icGF0aDM2MTQ4IiBkPSJtIDEwNS4zMzU5NCw5OC4zMzc4OTEgdiA5LjQ5OTk5OSBjIDkuNDA2OTksMCAxNi40NDYyOSwzLjY2MzUyIDIzLjU2OTA1LDEzLjkzMDExIGwgNi45OTQyOCwtNi41MzY0NSBDIDEyNy42MDIxOCwxMDMuOTc3ODYgMTE3LjE5MzcxLDk4LjMzNzg5MSAxMDUuMzM1OTQsOTguMzM3ODkxIFoiIHN0eWxlPSJjb2xvcjojMDAwMDAwO29wYWNpdHk6MTtmaWxsOiM2NjlkZjY7ZmlsbC1vcGFjaXR5OjE7LWlua3NjYXBlLXN0cm9rZTpub25lIi8+JiN4YTsgIDwvZz4mI3hhOzwvc3ZnPg==;" vertex="1" parent="1">
          <mxGeometry x="190" y="237.5" width="42" height="35" as="geometry" />
        </mxCell>
        <mxCell id="15" value="" style="shape=mxgraph.gcp2.google_cloud_platform;fillColor=#F6F6F6;strokeColor=none;shadow=0;gradientColor=none;" parent="1" vertex="1">
          <mxGeometry x="540" y="100" width="23" height="20" as="geometry">
            <mxPoint x="20" y="10" as="offset" />
          </mxGeometry>
        </mxCell>
        <mxCell id="EmaKph8l3iPdzom6f2Yf-535" value="" style="strokeColor=#dddddd;shadow=1;strokeWidth=1;rounded=1;absoluteArcSize=1;arcSize=2;fontFamily=Helvetica;fontSize=10;fontColor=#999999;" vertex="1" parent="1">
          <mxGeometry x="561" y="230" width="160" height="60" as="geometry" />
        </mxCell>
        <mxCell id="EmaKph8l3iPdzom6f2Yf-536" value="&lt;font color=&quot;#000000&quot;&gt;标签&lt;/font&gt;&lt;br&gt;广电级媒资标签" style="editableCssRules=.*;html=1;fontColor=#999999;shape=image;verticalLabelPosition=middle;labelBackgroundColor=#ffffff;verticalAlign=middle;labelPosition=right;align=left;spacingLeft=20;part=1;points=[];imageAspect=0;image=data:image/svg+xml,PHN2ZyB4bWxucz0iaHR0cDovL3d3dy53My5vcmcvMjAwMC9zdmciIHhtbG5zOnY9Imh0dHBzOi8vdmVjdGEuaW8vbmFubyIgd2lkdGg9IjE0LjY0MDAwMDM0MzMyMjc1NCIgaGVpZ2h0PSIyMCIgdmlld0JveD0iMCAwIDE0LjY0MDAwMDM0MzMyMjc1NCAyMCI+JiN4YTsJPHN0eWxlIHR5cGU9InRleHQvY3NzIj4mI3hhOwkuc3Qwe2ZpbGw6I2FlY2JmYTt9JiN4YTsJLnN0MXtmaWxsOiM0Mjg1ZjQ7fSYjeGE7CTwvc3R5bGU+JiN4YTsJPHBhdGggY2xhc3M9InN0MCIgZD0iTTAgMGgxNC42M3YzLjk0aC01LjN2NS4zM0g1LjM1VjMuOTZIMHoiLz4mI3hhOwk8cGF0aCBjbGFzcz0ic3QxIiBkPSJNMy45NSAxMC42N2g1LjM0VjIwSDUuMzV2LTUuMzVIMFY1LjM3aDMuOTV6TTE0LjY0IDIwSDEwLjdWNS4zNmgzLjk0eiIvPiYjeGE7CTxwYXRoIGNsYXNzPSJzdDAiIGQ9Ik0wIDE2LjA2aDMuOTJWMjBIMHoiLz4mI3hhOzwvc3ZnPg==;fontFamily=Helvetica;fontSize=10;" vertex="1" parent="EmaKph8l3iPdzom6f2Yf-535">
          <mxGeometry width="22" height="30" relative="1" as="geometry">
            <mxPoint x="19" y="15" as="offset" />
          </mxGeometry>
        </mxCell>
        <mxCell id="501" value="" style="strokeColor=#dddddd;fillColor=#ffffff;shadow=1;strokeWidth=1;rounded=1;absoluteArcSize=1;arcSize=2;fontSize=10;fontColor=#999999;align=left;html=1;" parent="1" vertex="1">
          <mxGeometry x="561" y="150" width="160" height="60" as="geometry" />
        </mxCell>
        <mxCell id="502" value="&lt;font color=&quot;#000000&quot;&gt;AI分析&lt;/font&gt;&lt;br&gt;AI视频分析&lt;br&gt;内容识别" style="dashed=0;connectable=0;html=1;fillColor=#5184F3;strokeColor=none;shape=mxgraph.gcp2.hexIcon;prIcon=bigquery;part=1;labelPosition=right;verticalLabelPosition=middle;align=left;verticalAlign=middle;spacingLeft=5;fontColor=#999999;fontSize=12;" parent="501" vertex="1">
          <mxGeometry y="0.5" width="44" height="39" relative="1" as="geometry">
            <mxPoint x="5" y="-19.5" as="offset" />
          </mxGeometry>
        </mxCell>
        <mxCell id="EmaKph8l3iPdzom6f2Yf-539" value="" style="strokeColor=#dddddd;shadow=1;strokeWidth=1;rounded=1;absoluteArcSize=1;arcSize=2;fontFamily=Helvetica;fontSize=10;fontColor=#999999;" vertex="1" parent="1">
          <mxGeometry x="561" y="310" width="160" height="60" as="geometry" />
        </mxCell>
        <mxCell id="EmaKph8l3iPdzom6f2Yf-540" value="&lt;font color=&quot;#000000&quot;&gt;审核发布&lt;/font&gt;&lt;br&gt;智能审核&lt;br&gt;手动审核" style="editableCssRules=.*;html=1;fontColor=#999999;shape=image;verticalLabelPosition=middle;labelBackgroundColor=#ffffff;verticalAlign=middle;labelPosition=right;align=left;spacingLeft=20;part=1;points=[];imageAspect=0;image=data:image/svg+xml,PHN2ZyB4bWxucz0iaHR0cDovL3d3dy53My5vcmcvMjAwMC9zdmciIHhtbG5zOnY9Imh0dHBzOi8vdmVjdGEuaW8vbmFubyIgd2lkdGg9IjMxMC43NzU2MDY1NDM4NjAyNSIgaGVpZ2h0PSIzNzcuOTUzMDI4ODM1NTI1NDYiIHZpZXdCb3g9Ii0wLjE0MDAwMDAwMDU5NjA0NjQ1IC0wLjQ2NzAwMDAwNzYyOTM5NDUzIDgyLjIyNTk5NzkyNDgwNDY5IDEwMC4wMDAwMDc2MjkzOTQ1MyI+JiN4YTs8c3R5bGUgdHlwZT0idGV4dC9jc3MiPiYjeGE7CS5zdDB7ZmlsbDojNDI4NWY0O30mI3hhOwkuc3Qxe2ZpbGw6IzY2OWRmNjt9JiN4YTsJLnN0MntmaWxsOiNmZmY7fSYjeGE7PC9zdHlsZT4mI3hhOwk8cGF0aCBjbGFzcz0ic3QwIiBkPSJNNDAuOTczLS40NjdsNDEuMTEzIDE3LjQ5M3YyOS42NTRjMCAyNy40MTgtMjQuNjA4IDUwLjgzNi00MS4xMTMgNTIuODUzeiIvPiYjeGE7CTxwYXRoIGNsYXNzPSJzdDEiIGQ9Ik00MC45NzMtLjQ2N0wtLjE0IDE3LjAyNXYyOS42NTRjMCAyNy40MTggMjQuNjA4IDUwLjgzNiA0MS4xMTMgNTIuODUzeiIvPiYjeGE7CTxwYXRoIGNsYXNzPSJzdDIiIGQ9Ik00MS4yNTMgMTYuNjA1Yy05LjU4NCAwLTE3LjQ0NSA3Ljg2Mi0xNy40NDUgMTcuNDQ1IDAgOC4wODQgNS41OTQgMTQuOTQyIDEzLjA5NiAxNi44OTF2OS40ODhoLTkuODY5djguNzAxaDkuODY5djUuMzc3aC02LjMxNXY4LjcwMWg2LjMxNXYyLjE5N2g4LjcwMVY1MC45NDFDNTMuMTA2IDQ4Ljk5MiA1OC43IDQyLjEzNCA1OC43IDM0LjA1YzAtOS41ODQtNy44NjMtMTcuNDQ1LTE3LjQ0Ny0xNy40NDV6bTAgOC42OTlBOC42OCA4LjY4IDAgMCAxIDUwIDM0LjA1YTguNjggOC42OCAwIDAgMS04Ljc0OCA4Ljc0NiA4LjY4IDguNjggMCAwIDEtOC43NDYtOC43NDYgOC42OCA4LjY4IDAgMCAxIDguNzQ2LTguNzQ2eiIvPiYjeGE7PC9zdmc+;fontFamily=Helvetica;fontSize=10;" vertex="1" parent="EmaKph8l3iPdzom6f2Yf-539">
          <mxGeometry width="24" height="30" relative="1" as="geometry">
            <mxPoint x="18" y="15" as="offset" />
          </mxGeometry>
        </mxCell>
        <mxCell id="EmaKph8l3iPdzom6f2Yf-531" value="" style="strokeColor=#dddddd;shadow=1;strokeWidth=1;rounded=1;absoluteArcSize=1;arcSize=2;fontFamily=Helvetica;fontSize=10;fontColor=#999999;" vertex="1" parent="1">
          <mxGeometry x="731" y="150" width="160" height="60" as="geometry" />
        </mxCell>
        <mxCell id="EmaKph8l3iPdzom6f2Yf-532" value="&lt;font color=&quot;#000000&quot;&gt;AI剪辑&lt;/font&gt;&lt;br&gt;AI智能短片剪辑" style="editableCssRules=.*;html=1;fontColor=#999999;shape=image;verticalLabelPosition=middle;labelBackgroundColor=#ffffff;verticalAlign=middle;labelPosition=right;align=left;spacingLeft=20;part=1;points=[];imageAspect=0;image=data:image/svg+xml,PHN2ZyB4bWxucz0iaHR0cDovL3d3dy53My5vcmcvMjAwMC9zdmciIHhtbG5zOnY9Imh0dHBzOi8vdmVjdGEuaW8vbmFubyIgd2lkdGg9IjI3MS44OTgxMDE4MDY2NDA2IiBoZWlnaHQ9IjQyMy4wMDQwMjgzMjAzMTI1IiB2aWV3Qm94PSIwLjAwMDQ2MTI3MDM2MzMwMjkwMTQgMCAyNzEuODk4MTAxODA2NjQwNiA0MjMuMDA0MDI4MzIwMzEyNSI+JiN4YTsJPHN0eWxlIHR5cGU9InRleHQvY3NzIj4mI3hhOwkuc3Qwe2ZpbGw6IzQyODVmNDtmaWxsLXJ1bGU6ZXZlbm9kZH0mI3hhOwk8L3N0eWxlPiYjeGE7CTxwYXRoIGNsYXNzPSJzdDAiIGQ9Ik0xOTcuMzc4IDE0NC43NzRhMy4xMSAzLjExIDAgMCAxIDMuMTA1IDIuOTM0bC4wMDUuMTc3djE3LjEwN2EzLjExIDMuMTEgMCAwIDEtMi45MzQgMy4xMDVsLS4xNzcuMDA1aC0xMi40NDF2MzAuNjQ5YzAgMS4yMjcuMjk3IDIuNDM1Ljg2MiAzLjUyMmwuMTYxLjI5MyA4My44OTUgMTQ0LjI2MmExNS4yNiAxNS4yNiAwIDAgMSAuMTgyIDE0LjkzNmwtLjE4Mi4zMjQtMzAuNDMxIDUzLjI4NmExNS4yNiAxNS4yNiAwIDAgMS0xMi44NjEgNy42MjZsLS4zNTUuMDA0SDQ1LjY5MmExNS4yNiAxNS4yNiAwIDAgMS0xMy4wMzUtNy4zMjRsLS4xODEtLjMwNS0zMC40MzEtNTMuMjg2YTE1LjI2IDE1LjI2IDAgMCAxLS4xODItMTQuOTM2bC4xODItLjMyNCA4My42NzQtMTQ0LjI2MmMuNjIxLTEuMDc3IDEuMTYtMi4yODkgMS4yMzQtMy41MjhsLjAwOS0uMjg3di0zMC42NDlINzQuNTJjLTEuNjU4IDAtMy4wMTQtMS4yOTktMy4xMDUtMi45MzRsLS4wMDUtLjE3NnYtMTcuMTA3YTMuMTEgMy4xMSAwIDAgMSAyLjkzNC0zLjEwNWwuMTc2LS4wMDV6bS0zNS43NjkgMjMuMzI3aC01MS4zMnYzNS40MDVjMCAyLjUzMS0uNjI4IDUuMDE4LTEuODI2IDcuMjQybC0uMjE3LjM5TDI4LjAzMyAzNTAuOWE3LjYzIDcuNjMgMCAwIDAtLjEzOSA3LjM3NWwuMTQxLjI1NSAyMC43NDEgMzUuOTIxYTcuNjMgNy42MyAwIDAgMCA2LjMyNyAzLjgxbC4yODEuMDA1aDI1LjU3MmwtMjIuNjA1LTM5LjE1M2MtMS4zMTQtMi4yNzYtMS4zNjEtNS4wNjItLjE0MS03LjM3NWwuMTQxLS4yNTUgMTkuNjc5LTM0LjA4NmgxNDYuNjA2TDIxMi45ODggMjk3LjFoLTU0LjI1OWwtOC44MjEtMTUuMjc4aDU0LjMxMmwtMTYuMzMzLTI4LjQ2aC01NC43OGwtOC44MjEtMTUuMjc4aDU0LjgzM2wtMTUuNDY1LTI2Ljk0NmExNS4yNyAxNS4yNyAwIDAgMS0yLjAzOS03LjE4NWwtLjAwNy0uNDQ2em03Mi44NDQgMTY2LjQwMWwtNTQuMTgxLjAwMSA4LjgyMSAxNS41NTJoNTQuMjg1ek0xMDQuOTIxIDc5Ljc5NWM4LjQyNyAwIDE1LjI1OSA2LjgzMyAxNS4yNTkgMTUuMjYxcy02LjgzMiAxNS4yNTktMTUuMjU5IDE1LjI1OS0xNS4yNTktNi44MzItMTUuMjU5LTE1LjI1OSA2LjgzMi0xNS4yNjEgMTUuMjU5LTE1LjI2MXptNTcuNTc1LTMyLjc0M2MxMi42NDIgMCAyMi44OSAxMC4yNDcgMjIuODkgMjIuODg5cy0xMC4yNDkgMjIuODg5LTIyLjg5IDIyLjg4OS0yMi44ODktMTAuMjQ5LTIyLjg4OS0yMi44ODkgMTAuMjQ3LTIyLjg4OSAyMi44ODktMjIuODg5ek0xMjcuODEgMGM4LjQyNyAwIDE1LjI2MSA2LjgzMyAxNS4yNjEgMTUuMjYxUzEzNi4yMzcgMzAuNTIgMTI3LjgxIDMwLjUycy0xNS4yNTktNi44MzItMTUuMjU5LTE1LjI1OVMxMTkuMzg0IDAgMTI3LjgxIDB6Ii8+JiN4YTs8L3N2Zz4=;fontFamily=Helvetica;fontSize=10;" vertex="1" parent="EmaKph8l3iPdzom6f2Yf-531">
          <mxGeometry width="20" height="30" relative="1" as="geometry">
            <mxPoint x="20" y="15" as="offset" />
          </mxGeometry>
        </mxCell>
        <mxCell id="EmaKph8l3iPdzom6f2Yf-537" value="" style="strokeColor=#dddddd;shadow=1;strokeWidth=1;rounded=1;absoluteArcSize=1;arcSize=2;fontFamily=Helvetica;fontSize=10;fontColor=#999999;" vertex="1" parent="1">
          <mxGeometry x="731" y="310" width="160" height="60" as="geometry" />
        </mxCell>
        <mxCell id="EmaKph8l3iPdzom6f2Yf-538" value="&lt;font color=&quot;#000000&quot;&gt;权限管控&lt;/font&gt;&lt;br&gt;媒资权限" style="editableCssRules=.*;html=1;fontColor=#999999;shape=image;verticalLabelPosition=middle;labelBackgroundColor=#ffffff;verticalAlign=middle;labelPosition=right;align=left;spacingLeft=20;part=1;points=[];imageAspect=0;image=data:image/svg+xml,PHN2ZyB4bWxucz0iaHR0cDovL3d3dy53My5vcmcvMjAwMC9zdmciIHhtbG5zOnY9Imh0dHBzOi8vdmVjdGEuaW8vbmFubyIgd2lkdGg9IjE2LjQyMDAwMDA3NjI5Mzk0NSIgaGVpZ2h0PSIyMC4wNDk5OTkyMzcwNjA1NDciIGZpbGwtcnVsZT0iZXZlbm9kZCIgdmlld0JveD0iMCAwIDE2LjQyMDAwMDA3NjI5Mzk0NSAyMC4wNDk5OTkyMzcwNjA1NDciPiYjeGE7CTxzdHlsZSB0eXBlPSJ0ZXh0L2NzcyI+JiN4YTsJLnN0MHtmaWxsOiM0Mjg1ZjQ7fSYjeGE7CS5zdDF7ZmlsbDojNjY5ZGY2O30mI3hhOwk8L3N0eWxlPiYjeGE7CTxwYXRoIGNsYXNzPSJzdDEiIGQ9Ik04LjIxIDBMMCAzLjQydjUuNjNjMCA1LjA2IDMuNSA5LjggOC4yMSAxMSA0LjcxLTEuMTUgOC4yMS01Ljg5IDguMjEtMTAuOTVWMy40MnptMCAzLjc5YTIuNjMgMi42MyAwIDAgMSAxLjAwNSA1LjA2QTIuNjMgMi42MyAwIDAgMSA2LjM1IDQuNTZhMi42MyAyLjYzIDAgMCAxIDEuODYtLjc3em00LjExIDExLjE1YTguNjQgOC42NCAwIDAgMS00LjExIDIuOTMgOC42NCA4LjY0IDAgMCAxLTQuMTEtMi45M3YtMi4yNWMwLTEuNjcgMi43NC0yLjUyIDQuMTEtMi41MnM0LjExLjg1IDQuMTEgMi41MnoiLz4mI3hhOwk8cGF0aCBjbGFzcz0ic3QwIiBkPSJNOC4yMSAwdjMuNzlhMi42MyAyLjYzIDAgMSAxIDAgNS4yNnYxLjEyYzEuMzcgMCA0LjExLjg1IDQuMTEgMi41MnYyLjI1YTguNjQgOC42NCAwIDAgMS00LjExIDIuOTNWMjBjNC43MS0xLjE1IDguMjEtNS44OSA4LjIxLTEwLjk1VjMuNDJ6Ii8+JiN4YTs8L3N2Zz4=;fontFamily=Helvetica;fontSize=10;" vertex="1" parent="EmaKph8l3iPdzom6f2Yf-537">
          <mxGeometry width="24" height="30" relative="1" as="geometry">
            <mxPoint x="18" y="15" as="offset" />
          </mxGeometry>
        </mxCell>
        <mxCell id="EmaKph8l3iPdzom6f2Yf-544" value="" style="strokeColor=#dddddd;shadow=1;strokeWidth=1;rounded=1;absoluteArcSize=1;arcSize=2;fontFamily=Helvetica;fontSize=10;fontColor=#999999;" vertex="1" parent="1">
          <mxGeometry x="731" y="230" width="160" height="60" as="geometry" />
        </mxCell>
        <mxCell id="EmaKph8l3iPdzom6f2Yf-545" value="&lt;font color=&quot;#000000&quot;&gt;在线编辑&lt;/font&gt;&lt;br&gt;网页端媒资编辑" style="editableCssRules=.*;html=1;fontColor=#999999;shape=image;verticalLabelPosition=middle;labelBackgroundColor=#ffffff;verticalAlign=middle;labelPosition=right;align=left;spacingLeft=20;part=1;points=[];imageAspect=0;image=data:image/svg+xml,PHN2ZyB4bWxucz0iaHR0cDovL3d3dy53My5vcmcvMjAwMC9zdmciIHhtbG5zOnY9Imh0dHBzOi8vdmVjdGEuaW8vbmFubyIgd2lkdGg9IjIwIiBoZWlnaHQ9IjE4LjYwMDAwMDM4MTQ2OTcyNyIgdmlld0JveD0iMCAwIDIwIDE4LjYwMDAwMDM4MTQ2OTcyNyI+JiN4YTsJPHN0eWxlIHR5cGU9InRleHQvY3NzIj4mI3hhOwkuc3Qwe2ZpbGw6I2FlY2JmYTt9JiN4YTsJLnN0MXtmaWxsOiM0Mjg1ZjQ7fSYjeGE7CS5zdDJ7ZmlsbC1ydWxlOmV2ZW5vZGR9JiN4YTsJLnN0M3tmaWxsOiM2NjlkZjY7fSYjeGE7CTwvc3R5bGU+JiN4YTsJPGNpcmNsZSBjeD0iMTAiIGN5PSI5LjMiIHI9IjEuNiIgY2xhc3M9InN0MCIvPiYjeGE7CTxwYXRoIGQ9Ik0xMi42OSA1LjhsLS43NC0uN0g1LjU4djEuNGg2LjM3eiIgY2xhc3M9InN0MSBzdDIiLz4mI3hhOwk8Y2lyY2xlIGN4PSI0LjgiIGN5PSI1LjgiIHI9IjEuMjMiIGNsYXNzPSJzdDMiLz4mI3hhOwk8Y2lyY2xlIGN4PSIxNS4yIiBjeT0iNS44IiByPSIxLjYiIGNsYXNzPSJzdDAiLz4mI3hhOwk8cGF0aCBkPSJNMTQuMzggMTMuNXYtMS40SDguMWwtLjc0LjcuNzQuN3oiIGNsYXNzPSJzdDEgc3QyIi8+JiN4YTsJPGNpcmNsZSBjeD0iNC44IiBjeT0iMTIuOCIgcj0iMS42IiBjbGFzcz0ic3QwIi8+JiN4YTsJPGNpcmNsZSBjeD0iMTUuMiIgY3k9IjEyLjgiIHI9IjEuMjMiIGNsYXNzPSJzdDMiLz4mI3hhOwk8cGF0aCBkPSJNMTUuNiAxLjZsLS43NC0uN0gyLjE4djEuNGgxMi42OHoiIGNsYXNzPSJzdDEgc3QyIi8+JiN4YTsJPGNpcmNsZSBjeD0iMS42IiBjeT0iMS42IiByPSIxLjIzIiBjbGFzcz0ic3QzIi8+JiN4YTsJPGNpcmNsZSBjeD0iMTguNCIgY3k9IjEuNiIgcj0iMS42IiBjbGFzcz0ic3QwIi8+JiN4YTsJPHBhdGggZD0iTTE3Ljg0IDE3Ljd2LTEuNEg1LjE0bC0uNzQuNy43NC43eiIgY2xhc3M9InN0MSBzdDIiLz4mI3hhOwk8Y2lyY2xlIGN4PSIxLjYiIGN5PSIxNyIgcj0iMS42IiBjbGFzcz0ic3QwIi8+JiN4YTsJPGNpcmNsZSBjeD0iMTguNCIgY3k9IjE3IiByPSIxLjIzIiBjbGFzcz0ic3QzIi8+JiN4YTs8L3N2Zz4=;fontFamily=Helvetica;fontSize=10;" vertex="1" parent="EmaKph8l3iPdzom6f2Yf-544">
          <mxGeometry width="30" height="28" relative="1" as="geometry">
            <mxPoint x="15" y="16" as="offset" />
          </mxGeometry>
        </mxCell>
      </root>
    </mxGraphModel>
  </diagram>
</mxfile>
